<svg id="Layer_1" data-name="Layer 1" xmlns="http://www.w3.org/2000/svg" viewBox="0 0 1080 1080"><defs><style>.cls-1{fill:#fff;}.cls-1,.cls-2{stroke:#0000FF;stroke-miterlimit:10;}.cls-1,.cls-3{stroke-width:10.14px;}.cls-2,.cls-3{fill:#0000FF;}.cls-2{stroke-width:5.32px;}.cls-3{stroke:#0000FF;stroke-linecap:round;stroke-linejoin:round;}</style></defs><title>Artboard 5</title><circle class="cls-1" cx="556.74" cy="349.57" r="93.25"/><path class="cls-2" d="M625.7,419.74c-.19-13.69-5.46-24.63-19.15-24.44a24.8,24.8,0,0,0-24.44,25.14c.68,47.73-6,68.7-19.76,85.94a41.79,41.79,0,0,1-7.37,7.2V404.76c0-14.23.86-48.55-24.94-48.55-33,0-29.22,50.8-29.22,50.8V571.36a38.79,38.79,0,0,1-10.7-10.06c-12.61-17.22-17.68-30.7-15.05-76.78a24,24,0,0,0-22.58-25.3c-13.21-.75-20.55,9.35-21.3,22.57-1.68,29.49-2,54,2,74.89,4,21.05,8.29,28.61,18.3,42.26,9.55,13,22,24.2,37,30.5a102.44,102.44,0,0,0,12.35,4.26v84.21H555V574.67q3.35-1,6.54-2.16A90.11,90.11,0,0,0,601.06,544c10.93-13.66,13.67-25.47,18.74-47C624.83,475.54,626.13,450.28,625.7,419.74Z"/><line class="cls-3" x1="379.87" y1="717.91" x2="700.13" y2="717.91"/><line class="cls-3" x1="415.63" y1="770.8" x2="664.37" y2="770.8"/><line class="cls-3" x1="476.85" y1="823.69" x2="603.15" y2="823.69"/></svg>
